<svg id="visual" viewBox="0 0 1920 1080" width="1920" height="1080" xmlns="http://www.w3.org/2000/svg" xmlns:xlink="http://www.w3.org/1999/xlink" version="1.1"><rect x="0" y="0" width="1920" height="1080" fill="#ffb006"></rect><defs><linearGradient id="grad1_0" x1="43.8%" y1="0%" x2="100%" y2="100%"><stop offset="14.444444444444446%" stop-color="#ffb006" stop-opacity="1"></stop><stop offset="85.55555555555554%" stop-color="#ffb006" stop-opacity="1"></stop></linearGradient></defs><defs><linearGradient id="grad2_0" x1="0%" y1="0%" x2="56.3%" y2="100%"><stop offset="14.444444444444446%" stop-color="#ffb006" stop-opacity="1"></stop><stop offset="85.55555555555554%" stop-color="#ffb006" stop-opacity="1"></stop></linearGradient></defs><g transform="translate(1920, 0)"><path d="M0 1080C-142.4 1065 -284.8 1050 -413.3 997.8C-541.8 945.5 -656.3 856 -753.1 753.1C-849.8 650.1 -928.7 533.8 -980.2 406C-1031.8 278.3 -1055.9 139.1 -1080 0L0 0Z" fill="#c5daf2"></path></g><g transform="translate(0, 1080)"><path d="M0 -1080C145.8 -1069.4 291.7 -1058.8 413.3 -997.8C534.9 -936.8 632.3 -825.3 717.7 -717.7C803.1 -610.1 876.6 -506.3 935 -387.3C993.4 -268.3 1036.7 -134.1 1080 0L0 0Z" fill="#c5daf2"></path></g></svg>