<svg id="visual" viewBox="0 0 1920 1080" width="1920" height="1080" xmlns="http://www.w3.org/2000/svg" xmlns:xlink="http://www.w3.org/1999/xlink" version="1.1"><rect x="0" y="0" width="1920" height="1080" fill="#c5daf2"></rect><defs><linearGradient id="grad1_0" x1="43.8%" y1="100%" x2="100%" y2="0%"><stop offset="14.444444444444446%" stop-color="#5885bd" stop-opacity="1"></stop><stop offset="85.55555555555554%" stop-color="#5885bd" stop-opacity="1"></stop></linearGradient></defs><defs><linearGradient id="grad1_1" x1="43.8%" y1="100%" x2="100%" y2="0%"><stop offset="14.444444444444446%" stop-color="#5885bd" stop-opacity="1"></stop><stop offset="85.55555555555554%" stop-color="#c5daf2" stop-opacity="1"></stop></linearGradient></defs><defs><linearGradient id="grad2_0" x1="0%" y1="100%" x2="56.3%" y2="0%"><stop offset="14.444444444444446%" stop-color="#5885bd" stop-opacity="1"></stop><stop offset="85.55555555555554%" stop-color="#5885bd" stop-opacity="1"></stop></linearGradient></defs><defs><linearGradient id="grad2_1" x1="0%" y1="100%" x2="56.3%" y2="0%"><stop offset="14.444444444444446%" stop-color="#c5daf2" stop-opacity="1"></stop><stop offset="85.55555555555554%" stop-color="#5885bd" stop-opacity="1"></stop></linearGradient></defs><g transform="translate(1920, 1080)"><path d="M-648 0C-580.9 -64.3 -513.7 -128.7 -481.3 -199.4C-449 -270.1 -451.4 -347.2 -420 -420C-388.7 -492.8 -323.6 -561.4 -248 -598.7C-172.4 -636 -86.2 -642 0 -648L0 0Z" fill="#8eafd7"></path><path d="M-324 0C-290.4 -32.2 -256.9 -64.3 -240.7 -99.7C-224.5 -135 -225.7 -173.6 -210 -210C-194.3 -246.4 -161.8 -280.7 -124 -299.3C-86.2 -318 -43.1 -321 0 -324L0 0Z" fill="#5885bd"></path></g><g transform="translate(0, 0)"><path d="M648 0C644.4 89.1 640.7 178.1 598.7 248C556.6 317.8 476.2 368.5 405.9 405.9C335.5 443.2 275.3 467.2 209.3 505.4C143.4 543.5 71.7 595.7 0 648L0 0Z" fill="#8eafd7"></path><path d="M324 0C322.2 44.5 320.4 89.1 299.3 124C278.3 158.9 238.1 184.3 202.9 202.9C167.8 221.6 137.6 233.6 104.7 252.7C71.7 271.7 35.8 297.9 0 324L0 0Z" fill="#5885bd"></path></g></svg>