<svg id="visual" viewBox="0 0 900 600" width="900" height="600" xmlns="http://www.w3.org/2000/svg" xmlns:xlink="http://www.w3.org/1999/xlink" version="1.1"><rect x="0" y="0" width="900" height="600" fill="#A9C4E5"></rect><defs><linearGradient id="grad1_0" x1="33.3%" y1="100%" x2="100%" y2="0%"><stop offset="20%" stop-color="#a9c4e5" stop-opacity="1"></stop><stop offset="80%" stop-color="#a9c4e5" stop-opacity="1"></stop></linearGradient></defs><defs><linearGradient id="grad2_0" x1="0%" y1="100%" x2="66.7%" y2="0%"><stop offset="20%" stop-color="#a9c4e5" stop-opacity="1"></stop><stop offset="80%" stop-color="#a9c4e5" stop-opacity="1"></stop></linearGradient></defs><g transform="translate(900, 600)"><path d="M-243.4 0C-232.9 -40 -222.5 -79.9 -203.5 -117.5C-184.5 -155.1 -157 -190.2 -121.7 -210.8C-86.3 -231.3 -43.2 -237.4 0 -243.4L0 0Z" fill="#739ACA"></path></g><g transform="translate(0, 0)"><path d="M243.4 0C230.2 38.4 216.9 76.7 198.3 114.5C179.7 152.3 155.6 189.4 121.7 210.8C87.7 232.1 43.9 237.8 0 243.4L0 0Z" fill="#739ACA"></path></g></svg>